<svg id="Layer_1" data-name="Layer 1" xmlns="http://www.w3.org/2000/svg" width="1080" height="1080" viewBox="0 0 1080 1080"><defs><style>.cls-1{fill:#fff;}.cls-2{fill:none;stroke:#000;stroke-linecap:round;stroke-linejoin:round;stroke-width:47px;}</style></defs><path class="cls-1" d="M540,1053.5A513.6423,513.6423,0,0,1,340.1309,66.8423a513.64,513.64,0,0,1,399.7382,946.3149A510.2547,510.2547,0,0,1,540,1053.5Z"/><path d="M540,53A487.1423,487.1423,0,0,1,729.5461,988.7508,487.14,487.14,0,0,1,350.4539,91.2492,483.9007,483.9007,0,0,1,540,53m0-53C241.7663,0,0,241.7663,0,540s241.7663,540,540,540,540-241.7663,540-540S838.2337,0,540,0Z"/><path class="cls-2" d="M254.5047,526.8108c-10.9116-13.4681,65.3248,66.6581,192.9938,209.9036l379.03-393.4288"/></svg>