<svg width="145" height="140" viewBox="0 0 145 140" fill="none" xmlns="http://www.w3.org/2000/svg">
<path d="M55.4143 94.745L72.5001 78.2483L89.5859 94.745L98.1288 86.4967L81.043 70L98.1288 53.5033L89.5859 45.255L72.5001 61.7517L55.4143 45.255L46.8713 53.5033L63.9572 70L46.8713 86.4967L55.4143 94.745Z" fill="black"/>
<path d="M72.4999 128.333C105.814 128.333 132.917 102.165 132.917 70C132.917 37.835 105.814 11.6667 72.4999 11.6667C39.1862 11.6667 12.0833 37.835 12.0833 70C12.0833 102.165 39.1862 128.333 72.4999 128.333ZM72.4999 23.3334C99.1497 23.3334 120.833 44.2692 120.833 70C120.833 95.7309 99.1497 116.667 72.4999 116.667C45.8501 116.667 24.1666 95.7309 24.1666 70C24.1666 44.2692 45.8501 23.3334 72.4999 23.3334Z" fill="black"/>
</svg>
