<svg width="145" height="140" viewBox="0 0 145 140" fill="none" xmlns="http://www.w3.org/2000/svg">
<path d="M98.9796 48.2617H92.3385C90.8941 48.2617 89.5206 48.9316 88.671 50.0801L66.4112 79.8848L56.3292 66.377C55.4796 65.2422 54.1202 64.5586 52.6617 64.5586H46.0206C45.1002 64.5586 44.5621 65.5703 45.1002 66.2949L62.7437 89.9199C63.1605 90.4816 63.71 90.9393 64.3466 91.255C64.9831 91.5708 65.6885 91.7354 66.4041 91.7354C67.1198 91.7354 67.8251 91.5708 68.4617 91.255C69.0983 90.9393 69.6477 90.4816 70.0645 89.9199L99.8858 49.998C100.438 49.2734 99.9 48.2617 98.9796 48.2617Z" fill="#E23A3A"/>
<path d="M72.5 8.75C37.4678 8.75 9.0625 36.1758 9.0625 70C9.0625 103.824 37.4678 131.25 72.5 131.25C107.532 131.25 135.938 103.824 135.938 70C135.938 36.1758 107.532 8.75 72.5 8.75ZM72.5 120.859C43.415 120.859 19.8242 98.082 19.8242 70C19.8242 41.918 43.415 19.1406 72.5 19.1406C101.585 19.1406 125.176 41.918 125.176 70C125.176 98.082 101.585 120.859 72.5 120.859Z" fill="#E23A3A"/>
</svg>
