<svg width="219" height="101" viewBox="0 0 219 101" fill="none" xmlns="http://www.w3.org/2000/svg">
<g clip-path="url(#clip0)">
<path d="M58.2383 41.3714H41.1608V60.1511H32.2664V14.1961H60.3728V21.8658H41.1608V33.7333H58.2383V41.3714ZM74.426 52.5447H93.3119V60.1511H65.5319V14.1961H74.426V52.5447ZM107.899 60.1511H99.0043V14.1961H107.899V60.1511ZM150.059 44.8433C149.723 49.7881 148.003 53.6808 144.9 56.5214C141.817 59.362 137.745 60.7822 132.685 60.7822C127.15 60.7822 122.792 58.8044 119.61 54.8488C116.448 50.8717 114.866 45.4222 114.866 38.4992V35.6902C114.866 31.2714 115.598 27.3787 117.06 24.0121C118.523 20.6454 120.608 18.0678 123.316 16.2792C126.044 14.4697 129.206 13.5649 132.804 13.5649C137.784 13.5649 141.797 14.9852 144.84 17.8258C147.884 20.6664 149.644 24.6538 150.118 29.788H141.223C141.006 26.8211 140.225 24.6749 138.881 23.3492C137.557 22.0026 135.531 21.3292 132.804 21.3292C129.838 21.3292 127.615 22.4655 126.132 24.738C124.67 26.9894 123.919 30.4929 123.88 35.2483V38.7202C123.88 43.686 124.581 47.3156 125.984 49.6094C127.408 51.9028 129.641 53.0497 132.685 53.0497C135.432 53.0497 137.478 52.3867 138.822 51.0611C140.186 49.7144 140.967 47.6419 141.164 44.8433H150.059ZM169.419 41.7186L164.794 47.0211V60.1511H155.899V14.1961H164.794V35.0273L168.707 29.3146L179.707 14.1961H190.647L175.319 34.6171L191.092 60.1511H180.507L169.419 41.7186Z" fill="black"/>
<path d="M208.38 15.2623H202.477V60.1512H208.38V15.2623Z" fill="#E23A3A"/>
<path d="M217.235 15.2623H211.332V60.1512H217.235V15.2623Z" fill="#E23A3A"/>
<path d="M179.285 34.5645L199.255 14.3645L199.525 60.1511L179.285 34.5645Z" fill="#E23A3A"/>
<path d="M332.607 690.7L352.577 670.5L352.847 716.287L332.607 690.7Z" fill="#E23A3A"/>
</g>
<defs>
<clipPath id="clip0">
<rect width="218" height="101" fill="white" transform="translate(0.5)"/>
</clipPath>
</defs>
</svg>
