<svg width="166" height="158" viewBox="0 0 792 750" fill="none" xmlns="http://www.w3.org/2000/svg">
<path d="M42 125L208.667 125C219.717 125 230.315 129.39 238.129 137.204C245.943 145.018 250.333 155.616 250.333 166.667C250.333 177.717 245.943 188.315 238.129 196.129C230.315 203.943 219.717 208.333 208.667 208.333H42C30.9493 208.333 20.3512 203.943 12.5372 196.129C4.72315 188.315 0.333309 177.717 0.333309 166.667C0.333309 155.616 4.72315 145.018 12.5372 137.204C20.3512 129.39 30.9493 125 42 125ZM500.333 333.333C467.37 333.333 435.146 323.558 407.738 305.245C380.33 286.931 358.968 260.902 346.353 230.447C333.739 199.993 330.438 166.482 336.869 134.152C343.3 101.821 359.173 72.1243 382.482 48.8155C405.791 25.5068 435.488 9.63331 467.818 3.20244C500.148 -3.22843 533.66 0.072122 564.114 12.6867C594.568 25.3013 620.598 46.6634 638.912 74.0716C657.225 101.48 667 133.703 667 166.667C667 210.869 649.441 253.262 618.184 284.518C586.928 315.774 544.536 333.333 500.333 333.333ZM250.333 750C239.283 750 228.685 745.61 220.871 737.796C213.056 729.982 208.667 719.384 208.667 708.333C208.667 630.979 239.396 556.792 294.094 502.094C348.792 447.396 422.979 416.667 500.333 416.667C577.688 416.667 651.875 447.396 706.573 502.094C761.271 556.792 792 630.979 792 708.333C792 719.384 787.61 729.982 779.796 737.796C771.982 745.61 761.384 750 750.333 750" fill="#E23A3A"/>
</svg>
