<svg width="193" height="150" viewBox="0 0 193 150" fill="none" xmlns="http://www.w3.org/2000/svg">
<path d="M26.3182 97.5H43.8636C48.517 97.5 52.9797 99.0804 56.2701 101.893C59.5606 104.706 61.4091 108.522 61.4091 112.5V127.5H70.1818V112.5C70.1818 108.522 72.0303 104.706 75.3208 101.893C78.6112 99.0804 83.0739 97.5 87.7273 97.5H105.273C109.926 97.5 114.389 99.0804 117.679 101.893C120.97 104.706 122.818 108.522 122.818 112.5V127.5H131.591V112.5C131.591 108.522 133.439 104.706 136.73 101.893C140.02 99.0804 144.483 97.5 149.136 97.5H166.682C171.335 97.5 175.798 99.0804 179.088 101.893C182.379 104.706 184.227 108.522 184.227 112.5V127.5H193V150H0V127.5H8.77273V112.5C8.77273 108.522 10.6213 104.706 13.9117 101.893C17.2021 99.0804 21.6648 97.5 26.3182 97.5ZM87.7273 37.5L122.818 60L87.7273 82.5V37.5ZM26.3182 0H166.682C171.335 0 175.798 1.58035 179.088 4.3934C182.379 7.20644 184.227 11.0218 184.227 15V86.55C178.914 83.869 172.851 82.4693 166.682 82.5V15H26.3182V82.5C19.9141 82.5 13.9486 83.925 8.77273 86.55V15C8.77273 11.0218 10.6213 7.20644 13.9117 4.3934C17.2021 1.58035 21.6648 0 26.3182 0Z" fill="#E23A3A"/>
</svg>
