<svg width="166" height="158" viewBox="0 0 166 158" fill="none" xmlns="http://www.w3.org/2000/svg">
<g filter="url(#filter0_d)">
<path d="M78.3529 70.5882C77.3864 70.5882 76.4476 70.6588 75.5182 70.7912C82.1481 75.277 87.5519 81.203 91.2786 88.0748C95.0052 94.9467 96.9468 102.565 96.9412 110.294C96.9412 117.565 95.2589 124.474 92.2384 130.659C98.3763 131.823 104.623 132.391 110.882 132.353C142.594 132.353 162 119.594 162 101.471V88.2353C162 83.555 160.042 79.0664 156.556 75.7569C153.07 72.4475 148.342 70.5882 143.412 70.5882L78.3529 70.5882Z" fill="#E23A3A"/>
<path d="M22.5882 39.7059C22.5882 45.5563 25.0362 51.167 29.3937 55.3038C33.7512 59.4407 39.6612 61.7647 45.8235 61.7647C51.9859 61.7647 57.8959 59.4407 62.2534 55.3038C66.6108 51.167 69.0588 45.5563 69.0588 39.7059C69.0588 33.8555 66.6108 28.2448 62.2534 24.1079C57.8959 19.9711 51.9859 17.6471 45.8235 17.6471C39.6612 17.6471 33.7512 19.9711 29.3937 24.1079C25.0362 28.2448 22.5882 33.8555 22.5882 39.7059V39.7059Z" fill="#E23A3A"/>
<path d="M110.882 0C106.611 -6.04321e-08 102.381 0.798795 98.4339 2.35078C94.4872 3.90276 90.9012 6.17754 87.8806 9.04523C84.86 11.9129 82.4639 15.3174 80.8291 19.0642C79.1943 22.811 78.3529 26.8268 78.3529 30.8824C78.3529 34.9379 79.1943 38.9537 80.8291 42.7005C82.4639 46.4473 84.86 49.8518 87.8806 52.7195C90.9012 55.5872 94.4872 57.862 98.4339 59.4139C102.381 60.9659 106.611 61.7647 110.882 61.7647C119.51 61.7647 127.784 58.511 133.884 52.7195C139.985 46.9279 143.412 39.0729 143.412 30.8824C143.412 22.6918 139.985 14.8368 133.884 9.04523C127.784 3.25367 119.51 1.22048e-07 110.882 0V0Z" fill="#E23A3A"/>
<path d="M3.99998 110.294C3.99998 120.825 8.40638 130.924 16.2498 138.37C24.0932 145.817 34.7312 150 45.8235 150C56.9158 150 67.5538 145.817 75.3972 138.37C83.2406 130.924 87.647 120.825 87.647 110.294C87.647 99.7635 83.2406 89.6641 75.3972 82.2178C67.5538 74.7715 56.9158 70.5882 45.8235 70.5882C34.7312 70.5882 24.0932 74.7715 16.2498 82.2178C8.40638 89.6641 3.99998 99.7635 3.99998 110.294V110.294ZM41.1764 92.647C41.1764 91.477 41.666 90.3548 42.5375 89.5275C43.409 88.7001 44.591 88.2353 45.8235 88.2353C47.056 88.2353 48.238 88.7001 49.1095 89.5275C49.981 90.3548 50.4706 91.477 50.4706 92.647L50.4706 105.882H64.4117C65.6442 105.882 66.8262 106.347 67.6977 107.175C68.5692 108.002 69.0588 109.124 69.0588 110.294C69.0588 111.464 68.5692 112.586 67.6977 113.414C66.8262 114.241 65.6442 114.706 64.4117 114.706H50.4706V127.941C50.4706 129.111 49.981 130.233 49.1095 131.061C48.238 131.888 47.056 132.353 45.8235 132.353C44.591 132.353 43.409 131.888 42.5375 131.061C41.666 130.233 41.1764 129.111 41.1764 127.941V114.706H27.2353C26.0028 114.706 24.8208 114.241 23.9493 113.414C23.0778 112.586 22.5882 111.464 22.5882 110.294C22.5882 109.124 23.0778 108.002 23.9493 107.175C24.8208 106.347 26.0028 105.882 27.2353 105.882H41.1764L41.1764 92.647Z" fill="#E23A3A"/>
</g>
<defs>
<filter id="filter0_d" x="-1.52588e-05" y="0" width="166" height="158" filterUnits="userSpaceOnUse" color-interpolation-filters="sRGB">
<feFlood flood-opacity="0" result="BackgroundImageFix"/>
<feColorMatrix in="SourceAlpha" type="matrix" values="0 0 0 0 0 0 0 0 0 0 0 0 0 0 0 0 0 0 127 0" result="hardAlpha"/>
<feOffset dy="4"/>
<feGaussianBlur stdDeviation="2"/>
<feComposite in2="hardAlpha" operator="out"/>
<feColorMatrix type="matrix" values="0 0 0 0 0 0 0 0 0 0 0 0 0 0 0 0 0 0 0.25 0"/>
<feBlend mode="normal" in2="BackgroundImageFix" result="effect1_dropShadow"/>
<feBlend mode="normal" in="SourceGraphic" in2="effect1_dropShadow" result="shape"/>
</filter>
</defs>
</svg>
